<svg width="1068" height="245" fill="none" xmlns="http://www.w3.org/2000/svg"><mask id="a" maskUnits="userSpaceOnUse" x="0" y="0" width="1068" height="245" fill="#000"><path fill="#fff" d="M0 0h1068v245H0z"/><path d="M374.572 182.543h-39.907a5.589 5.589 0 0 1-5.587-5.586v-59.079a5.588 5.588 0 0 1 5.587-5.586h21.348a5.588 5.588 0 0 0 5.586-5.586V74.721a5.588 5.588 0 0 0-5.586-5.586h-21.348a5.589 5.589 0 0 1-5.587-5.586V24.586A5.588 5.588 0 0 0 323.492 19h-39.907a5.588 5.588 0 0 0-5.586 5.586v68.068c0 1.156.938 2.094 2.094 2.094 1.155 0 2.094.938 2.094 2.094v7.763a5.588 5.588 0 0 1-5.586 5.586 5.587 5.587 0 0 1-5.586-5.586v-7.763c0-1.156.938-2.094 2.094-2.094a2.096 2.096 0 0 0 2.094-2.094V74.721a5.589 5.589 0 0 0-5.587-5.586h-90.987a5.588 5.588 0 0 0-5.586 5.586v53.059c0 1.155.939 2.094 2.094 2.094 1.156 0 2.094.938 2.094 2.094v7.763a5.588 5.588 0 0 1-5.586 5.586 5.589 5.589 0 0 1-5.586-5.586v-7.763c0-1.156.939-2.094 2.094-2.094a2.095 2.095 0 0 0 2.094-2.094V74.72a5.588 5.588 0 0 0-5.586-5.585h-60.86a5.588 5.588 0 0 0-5.586 5.586v34.774a2.789 2.789 0 0 1-2.79 2.79h-1.596a2.788 2.788 0 0 1-2.79-2.79V74.721a5.588 5.588 0 0 0-5.586-5.586H24.586A5.588 5.588 0 0 0 19 74.72v145.386a5.588 5.588 0 0 0 5.586 5.586h36.358a5.588 5.588 0 0 0 5.586-5.586v-69.9a2.789 2.789 0 0 1 2.79-2.79h1.717a2.79 2.79 0 0 1 2.79 2.79v69.9a5.588 5.588 0 0 0 5.586 5.586h30.414a5.588 5.588 0 0 0 5.587-5.586v-69.9a2.788 2.788 0 0 1 2.789-2.79h1.718a2.79 2.79 0 0 1 2.79 2.79v69.9a5.587 5.587 0 0 0 5.586 5.586h36.358a5.588 5.588 0 0 0 5.586-5.586v-53.058a2.095 2.095 0 0 0-2.094-2.094 2.095 2.095 0 0 1-2.094-2.094v-7.764a5.588 5.588 0 0 1 5.586-5.586 5.589 5.589 0 0 1 5.586 5.586v7.764a2.096 2.096 0 0 1-2.094 2.094 2.095 2.095 0 0 0-2.094 2.094v53.058a5.588 5.588 0 0 0 5.586 5.586h90.993a5.588 5.588 0 0 0 5.587-5.586v-31.984a5.588 5.588 0 0 0-5.587-5.586h-39.907a5.589 5.589 0 0 1-5.586-5.587V165.72a5.588 5.588 0 0 1 5.586-5.586h14.371a5.589 5.589 0 0 0 5.586-5.587v-1.596a5.589 5.589 0 0 1 5.586-5.586h14.371a5.588 5.588 0 0 0 5.586-5.586v-9.857a2.095 2.095 0 0 0-2.094-2.094 2.095 2.095 0 0 1-2.094-2.094v-7.763a5.588 5.588 0 0 1 5.586-5.586 5.587 5.587 0 0 1 5.586 5.586v7.763a2.095 2.095 0 0 1-2.094 2.094 2.095 2.095 0 0 0-2.094 2.094v88.184a5.588 5.588 0 0 0 5.586 5.586h90.987a5.587 5.587 0 0 0 5.586-5.586v-31.984a5.587 5.587 0 0 0-5.586-5.586l-.006.006Zm-137.681-40.756a5.588 5.588 0 0 1-5.586 5.586h-14.371a5.589 5.589 0 0 1-5.586-5.586v-23.909a5.588 5.588 0 0 1 5.586-5.586h14.371a5.587 5.587 0 0 1 5.586 5.586v23.909Z"/><path d="M982.547 69.135a5.588 5.588 0 0 0-5.586 5.586v34.774a2.789 2.789 0 0 1-2.79 2.79h-1.596a2.789 2.789 0 0 1-2.79-2.79V74.721a5.588 5.588 0 0 0-5.586-5.586h-60.86a5.588 5.588 0 0 0-5.586 5.586v88.184c0 1.156.938 2.094 2.094 2.094 1.155 0 2.094.939 2.094 2.094v7.763a5.589 5.589 0 0 1-5.586 5.587h-.007a5.589 5.589 0 0 1-5.586-5.587v-7.763c0-1.155.939-2.094 2.094-2.094a2.095 2.095 0 0 0 2.094-2.094v-9.902a5.588 5.588 0 0 0-5.586-5.586h-1.596a5.588 5.588 0 0 1-5.586-5.586v-1.596a5.589 5.589 0 0 0-5.586-5.586h-39.914a5.589 5.589 0 0 1-5.586-5.586v-11.185a5.588 5.588 0 0 1 5.586-5.586h27.139a5.587 5.587 0 0 1 5.586 5.586v1.596a5.589 5.589 0 0 0 5.586 5.586h14.371a5.588 5.588 0 0 0 5.586-5.586V74.721a5.588 5.588 0 0 0-5.586-5.586h-90.993a5.588 5.588 0 0 0-5.586 5.586v17.933c0 1.156.938 2.094 2.094 2.094 1.155 0 2.094.938 2.094 2.094v7.763a5.588 5.588 0 0 1-5.587 5.586 5.588 5.588 0 0 1-5.586-5.586v-7.763c0-1.156.939-2.094 2.094-2.094a2.095 2.095 0 0 0 2.094-2.094V74.721a5.588 5.588 0 0 0-5.586-5.586h-39.907a5.588 5.588 0 0 0-5.586 5.586v53.059c0 1.155.938 2.094 2.094 2.094 1.155 0 2.094.938 2.094 2.094v7.763a5.589 5.589 0 0 1-5.586 5.586 5.589 5.589 0 0 1-5.587-5.586v-7.763c0-1.156.939-2.094 2.094-2.094a2.095 2.095 0 0 0 2.094-2.094V24.586A5.588 5.588 0 0 0 730.526 19h-39.907a5.588 5.588 0 0 0-5.586 5.586V127.78c0 1.155.938 2.094 2.094 2.094 1.155 0 2.094.938 2.094 2.094v7.763a5.589 5.589 0 0 1-5.586 5.586 5.588 5.588 0 0 1-5.586-5.586v-7.763c0-1.156.938-2.094 2.094-2.094a2.096 2.096 0 0 0 2.094-2.094V74.72a5.589 5.589 0 0 0-5.587-5.585h-90.993a5.588 5.588 0 0 0-5.586 5.586v53.059c0 1.155.938 2.094 2.094 2.094 1.155 0 2.094.938 2.094 2.094v7.763a5.589 5.589 0 0 1-5.586 5.586 5.588 5.588 0 0 1-5.586-5.586v-7.763c0-1.156.938-2.094 2.094-2.094a2.096 2.096 0 0 0 2.094-2.094V74.72a5.589 5.589 0 0 0-5.587-5.585h-42.703a2.789 2.789 0 0 1-2.79-2.79V24.586A5.588 5.588 0 0 0 520.609 19h-39.907a5.589 5.589 0 0 0-5.587 5.586V127.78c0 1.155.939 2.094 2.094 2.094 1.156 0 2.094.938 2.094 2.094v7.763a5.588 5.588 0 0 1-5.586 5.586 5.589 5.589 0 0 1-5.586-5.586v-7.763c0-1.156.939-2.094 2.094-2.094a2.095 2.095 0 0 0 2.094-2.094V74.72a5.588 5.588 0 0 0-5.586-5.585h-96.777a5.589 5.589 0 0 0-5.587 5.586v31.985a5.589 5.589 0 0 0 5.587 5.586h61.262a2.789 2.789 0 0 1 2.79 2.79v13.974a5.589 5.589 0 0 1-5.586 5.587H375.74a5.588 5.588 0 0 0-5.587 5.586v33.772a5.588 5.588 0 0 0 5.587 5.586h1.602a5.588 5.588 0 0 1 5.586 5.586v34.934a5.588 5.588 0 0 0 5.586 5.586h78.219a5.587 5.587 0 0 0 5.586-5.586v-53.058a2.095 2.095 0 0 0-2.094-2.094 2.096 2.096 0 0 1-2.094-2.094v-7.764a5.589 5.589 0 0 1 5.586-5.586 5.588 5.588 0 0 1 5.586 5.586v7.764a2.095 2.095 0 0 1-2.094 2.094 2.095 2.095 0 0 0-2.094 2.094v53.058a5.588 5.588 0 0 0 5.587 5.586h90.993a5.588 5.588 0 0 0 5.586-5.586v-53.058a2.095 2.095 0 0 0-2.094-2.094 2.095 2.095 0 0 1-2.094-2.094v-7.764a5.589 5.589 0 0 1 5.586-5.586 5.588 5.588 0 0 1 5.586 5.586v7.764a2.095 2.095 0 0 1-2.094 2.094 2.095 2.095 0 0 0-2.094 2.094v53.058a5.588 5.588 0 0 0 5.586 5.586h90.994a5.588 5.588 0 0 0 5.586-5.586v-53.058a2.095 2.095 0 0 0-2.094-2.094 2.095 2.095 0 0 1-2.094-2.094v-7.764a5.588 5.588 0 0 1 5.586-5.586 5.588 5.588 0 0 1 5.586 5.586v7.764a2.095 2.095 0 0 1-2.094 2.094 2.095 2.095 0 0 0-2.094 2.094v53.058a5.588 5.588 0 0 0 5.586 5.586h39.908a5.588 5.588 0 0 0 5.586-5.586v-53.058a2.095 2.095 0 0 0-2.094-2.094 2.095 2.095 0 0 1-2.094-2.094v-7.764a5.588 5.588 0 0 1 5.586-5.586 5.588 5.588 0 0 1 5.586 5.586v7.764a2.095 2.095 0 0 1-2.094 2.094 2.095 2.095 0 0 0-2.094 2.094v53.058a5.588 5.588 0 0 0 5.586 5.586h39.908a5.588 5.588 0 0 0 5.586-5.586v-88.184a2.095 2.095 0 0 0-2.094-2.094 2.095 2.095 0 0 1-2.094-2.094v-7.763a5.587 5.587 0 0 1 5.586-5.586 5.588 5.588 0 0 1 5.586 5.586v7.763a2.095 2.095 0 0 1-2.094 2.094 2.095 2.095 0 0 0-2.094 2.094v9.902a5.589 5.589 0 0 0 5.586 5.586h1.596a5.588 5.588 0 0 1 5.586 5.586v1.596a5.588 5.588 0 0 0 5.587 5.586h39.913a5.588 5.588 0 0 1 5.586 5.586v11.185a5.588 5.588 0 0 1-5.586 5.587H823.92a5.589 5.589 0 0 1-5.586-5.587v-1.596a5.589 5.589 0 0 0-5.586-5.586h-14.371a5.589 5.589 0 0 0-5.586 5.586v44.753a5.588 5.588 0 0 0 5.586 5.586h90.994a5.588 5.588 0 0 0 5.586-5.586v-17.933a2.096 2.096 0 0 0-2.094-2.094 2.095 2.095 0 0 1-2.094-2.094v-7.763a5.588 5.588 0 0 1 5.586-5.586h.006a5.588 5.588 0 0 1 5.586 5.586v7.763a2.095 2.095 0 0 1-2.094 2.094 2.096 2.096 0 0 0-2.094 2.094v17.933a5.588 5.588 0 0 0 5.586 5.586h36.358a5.587 5.587 0 0 0 5.586-5.586v-69.9a2.79 2.79 0 0 1 2.79-2.79h1.718a2.788 2.788 0 0 1 2.789 2.79v69.9a5.588 5.588 0 0 0 5.587 5.586h30.414a5.588 5.588 0 0 0 5.586-5.586v-69.9a2.789 2.789 0 0 1 2.79-2.79h1.717c1.55 0 2.79 1.252 2.79 2.79v69.9c0 3.084 2.5 5.586 5.59 5.586h36.35c3.09 0 5.59-2.502 5.59-5.586V74.721c0-3.084-2.5-5.586-5.59-5.586h-60.863ZM434.033 176.957a5.588 5.588 0 0 1-5.586 5.586h-14.371a5.589 5.589 0 0 1-5.586-5.586v-23.909a5.589 5.589 0 0 1 5.586-5.586h14.371a5.588 5.588 0 0 1 5.586 5.586v23.909Zm117.724 0a5.588 5.588 0 0 1-5.586 5.586H531.8a5.589 5.589 0 0 1-5.586-5.586v-23.909a5.588 5.588 0 0 0-5.586-5.586h-1.602a5.589 5.589 0 0 1-5.587-5.586v-23.998a5.588 5.588 0 0 1 5.587-5.586h27.139a5.588 5.588 0 0 1 5.586 5.586v59.079h.006Zm92.079 0a5.589 5.589 0 0 1-5.586 5.586h-14.371a5.588 5.588 0 0 1-5.586-5.586v-23.909a5.589 5.589 0 0 0-5.586-5.586h-1.603a5.589 5.589 0 0 1-5.586-5.586v-23.998a5.588 5.588 0 0 1 5.586-5.586h27.139a5.587 5.587 0 0 1 5.586 5.586v59.079h.007Z"/></mask><path d="M374.572 182.543h-39.907a5.589 5.589 0 0 1-5.587-5.586v-59.079a5.588 5.588 0 0 1 5.587-5.586h21.348a5.588 5.588 0 0 0 5.586-5.586V74.721a5.588 5.588 0 0 0-5.586-5.586h-21.348a5.589 5.589 0 0 1-5.587-5.586V24.586A5.588 5.588 0 0 0 323.492 19h-39.907a5.588 5.588 0 0 0-5.586 5.586v68.068c0 1.156.938 2.094 2.094 2.094 1.155 0 2.094.938 2.094 2.094v7.763a5.588 5.588 0 0 1-5.586 5.586 5.587 5.587 0 0 1-5.586-5.586v-7.763c0-1.156.938-2.094 2.094-2.094a2.096 2.096 0 0 0 2.094-2.094V74.721a5.589 5.589 0 0 0-5.587-5.586h-90.987a5.588 5.588 0 0 0-5.586 5.586v53.059c0 1.155.939 2.094 2.094 2.094 1.156 0 2.094.938 2.094 2.094v7.763a5.588 5.588 0 0 1-5.586 5.586 5.589 5.589 0 0 1-5.586-5.586v-7.763c0-1.156.939-2.094 2.094-2.094a2.095 2.095 0 0 0 2.094-2.094V74.72a5.588 5.588 0 0 0-5.586-5.585h-60.86a5.588 5.588 0 0 0-5.586 5.586v34.774a2.789 2.789 0 0 1-2.79 2.79h-1.596a2.788 2.788 0 0 1-2.79-2.79V74.721a5.588 5.588 0 0 0-5.586-5.586H24.586A5.588 5.588 0 0 0 19 74.72v145.386a5.588 5.588 0 0 0 5.586 5.586h36.358a5.588 5.588 0 0 0 5.586-5.586v-69.9a2.789 2.789 0 0 1 2.79-2.79h1.717a2.79 2.79 0 0 1 2.79 2.79v69.9a5.588 5.588 0 0 0 5.586 5.586h30.414a5.588 5.588 0 0 0 5.587-5.586v-69.9a2.788 2.788 0 0 1 2.789-2.79h1.718a2.79 2.79 0 0 1 2.79 2.79v69.9a5.587 5.587 0 0 0 5.586 5.586h36.358a5.588 5.588 0 0 0 5.586-5.586v-53.058a2.095 2.095 0 0 0-2.094-2.094 2.095 2.095 0 0 1-2.094-2.094v-7.764a5.588 5.588 0 0 1 5.586-5.586 5.589 5.589 0 0 1 5.586 5.586v7.764a2.096 2.096 0 0 1-2.094 2.094 2.095 2.095 0 0 0-2.094 2.094v53.058a5.588 5.588 0 0 0 5.586 5.586h90.993a5.588 5.588 0 0 0 5.587-5.586v-31.984a5.588 5.588 0 0 0-5.587-5.586h-39.907a5.589 5.589 0 0 1-5.586-5.587V165.72a5.588 5.588 0 0 1 5.586-5.586h14.371a5.589 5.589 0 0 0 5.586-5.587v-1.596a5.589 5.589 0 0 1 5.586-5.586h14.371a5.588 5.588 0 0 0 5.586-5.586v-9.857a2.095 2.095 0 0 0-2.094-2.094 2.095 2.095 0 0 1-2.094-2.094v-7.763a5.588 5.588 0 0 1 5.586-5.586 5.587 5.587 0 0 1 5.586 5.586v7.763a2.095 2.095 0 0 1-2.094 2.094 2.095 2.095 0 0 0-2.094 2.094v88.184a5.588 5.588 0 0 0 5.586 5.586h90.987a5.587 5.587 0 0 0 5.586-5.586v-31.984a5.587 5.587 0 0 0-5.586-5.586l-.006.006Zm-137.681-40.756a5.588 5.588 0 0 1-5.586 5.586h-14.371a5.589 5.589 0 0 1-5.586-5.586v-23.909a5.588 5.588 0 0 1 5.586-5.586h14.371a5.587 5.587 0 0 1 5.586 5.586v23.909Z" fill="#00FF47"/><path d="M982.547 69.135a5.588 5.588 0 0 0-5.586 5.586v34.774a2.789 2.789 0 0 1-2.79 2.79h-1.596a2.789 2.789 0 0 1-2.79-2.79V74.721a5.588 5.588 0 0 0-5.586-5.586h-60.86a5.588 5.588 0 0 0-5.586 5.586v88.184c0 1.156.938 2.094 2.094 2.094 1.155 0 2.094.939 2.094 2.094v7.763a5.589 5.589 0 0 1-5.586 5.587h-.007a5.589 5.589 0 0 1-5.586-5.587v-7.763c0-1.155.939-2.094 2.094-2.094a2.095 2.095 0 0 0 2.094-2.094v-9.902a5.588 5.588 0 0 0-5.586-5.586h-1.596a5.588 5.588 0 0 1-5.586-5.586v-1.596a5.589 5.589 0 0 0-5.586-5.586h-39.914a5.589 5.589 0 0 1-5.586-5.586v-11.185a5.588 5.588 0 0 1 5.586-5.586h27.139a5.587 5.587 0 0 1 5.586 5.586v1.596a5.589 5.589 0 0 0 5.586 5.586h14.371a5.588 5.588 0 0 0 5.586-5.586V74.721a5.588 5.588 0 0 0-5.586-5.586h-90.993a5.588 5.588 0 0 0-5.586 5.586v17.933c0 1.156.938 2.094 2.094 2.094 1.155 0 2.094.938 2.094 2.094v7.763a5.588 5.588 0 0 1-5.587 5.586 5.588 5.588 0 0 1-5.586-5.586v-7.763c0-1.156.939-2.094 2.094-2.094a2.095 2.095 0 0 0 2.094-2.094V74.721a5.588 5.588 0 0 0-5.586-5.586h-39.907a5.588 5.588 0 0 0-5.586 5.586v53.059c0 1.155.938 2.094 2.094 2.094 1.155 0 2.094.938 2.094 2.094v7.763a5.589 5.589 0 0 1-5.586 5.586 5.589 5.589 0 0 1-5.587-5.586v-7.763c0-1.156.939-2.094 2.094-2.094a2.095 2.095 0 0 0 2.094-2.094V24.586A5.588 5.588 0 0 0 730.526 19h-39.907a5.588 5.588 0 0 0-5.586 5.586V127.78c0 1.155.938 2.094 2.094 2.094 1.155 0 2.094.938 2.094 2.094v7.763a5.589 5.589 0 0 1-5.586 5.586 5.588 5.588 0 0 1-5.586-5.586v-7.763c0-1.156.938-2.094 2.094-2.094a2.096 2.096 0 0 0 2.094-2.094V74.72a5.589 5.589 0 0 0-5.587-5.585h-90.993a5.588 5.588 0 0 0-5.586 5.586v53.059c0 1.155.938 2.094 2.094 2.094 1.155 0 2.094.938 2.094 2.094v7.763a5.589 5.589 0 0 1-5.586 5.586 5.588 5.588 0 0 1-5.586-5.586v-7.763c0-1.156.938-2.094 2.094-2.094a2.096 2.096 0 0 0 2.094-2.094V74.72a5.589 5.589 0 0 0-5.587-5.585h-42.703a2.789 2.789 0 0 1-2.79-2.79V24.586A5.588 5.588 0 0 0 520.609 19h-39.907a5.589 5.589 0 0 0-5.587 5.586V127.78c0 1.155.939 2.094 2.094 2.094 1.156 0 2.094.938 2.094 2.094v7.763a5.588 5.588 0 0 1-5.586 5.586 5.589 5.589 0 0 1-5.586-5.586v-7.763c0-1.156.939-2.094 2.094-2.094a2.095 2.095 0 0 0 2.094-2.094V74.72a5.588 5.588 0 0 0-5.586-5.585h-96.777a5.589 5.589 0 0 0-5.587 5.586v31.985a5.589 5.589 0 0 0 5.587 5.586h61.262a2.789 2.789 0 0 1 2.79 2.79v13.974a5.589 5.589 0 0 1-5.586 5.587H375.74a5.588 5.588 0 0 0-5.587 5.586v33.772a5.588 5.588 0 0 0 5.587 5.586h1.602a5.588 5.588 0 0 1 5.586 5.586v34.934a5.588 5.588 0 0 0 5.586 5.586h78.219a5.587 5.587 0 0 0 5.586-5.586v-53.058a2.095 2.095 0 0 0-2.094-2.094 2.096 2.096 0 0 1-2.094-2.094v-7.764a5.589 5.589 0 0 1 5.586-5.586 5.588 5.588 0 0 1 5.586 5.586v7.764a2.095 2.095 0 0 1-2.094 2.094 2.095 2.095 0 0 0-2.094 2.094v53.058a5.588 5.588 0 0 0 5.587 5.586h90.993a5.588 5.588 0 0 0 5.586-5.586v-53.058a2.095 2.095 0 0 0-2.094-2.094 2.095 2.095 0 0 1-2.094-2.094v-7.764a5.589 5.589 0 0 1 5.586-5.586 5.588 5.588 0 0 1 5.586 5.586v7.764a2.095 2.095 0 0 1-2.094 2.094 2.095 2.095 0 0 0-2.094 2.094v53.058a5.588 5.588 0 0 0 5.586 5.586h90.994a5.588 5.588 0 0 0 5.586-5.586v-53.058a2.095 2.095 0 0 0-2.094-2.094 2.095 2.095 0 0 1-2.094-2.094v-7.764a5.588 5.588 0 0 1 5.586-5.586 5.588 5.588 0 0 1 5.586 5.586v7.764a2.095 2.095 0 0 1-2.094 2.094 2.095 2.095 0 0 0-2.094 2.094v53.058a5.588 5.588 0 0 0 5.586 5.586h39.908a5.588 5.588 0 0 0 5.586-5.586v-53.058a2.095 2.095 0 0 0-2.094-2.094 2.095 2.095 0 0 1-2.094-2.094v-7.764a5.588 5.588 0 0 1 5.586-5.586 5.588 5.588 0 0 1 5.586 5.586v7.764a2.095 2.095 0 0 1-2.094 2.094 2.095 2.095 0 0 0-2.094 2.094v53.058a5.588 5.588 0 0 0 5.586 5.586h39.908a5.588 5.588 0 0 0 5.586-5.586v-88.184a2.095 2.095 0 0 0-2.094-2.094 2.095 2.095 0 0 1-2.094-2.094v-7.763a5.587 5.587 0 0 1 5.586-5.586 5.588 5.588 0 0 1 5.586 5.586v7.763a2.095 2.095 0 0 1-2.094 2.094 2.095 2.095 0 0 0-2.094 2.094v9.902a5.589 5.589 0 0 0 5.586 5.586h1.596a5.588 5.588 0 0 1 5.586 5.586v1.596a5.588 5.588 0 0 0 5.587 5.586h39.913a5.588 5.588 0 0 1 5.586 5.586v11.185a5.588 5.588 0 0 1-5.586 5.587H823.92a5.589 5.589 0 0 1-5.586-5.587v-1.596a5.589 5.589 0 0 0-5.586-5.586h-14.371a5.589 5.589 0 0 0-5.586 5.586v44.753a5.588 5.588 0 0 0 5.586 5.586h90.994a5.588 5.588 0 0 0 5.586-5.586v-17.933a2.096 2.096 0 0 0-2.094-2.094 2.095 2.095 0 0 1-2.094-2.094v-7.763a5.588 5.588 0 0 1 5.586-5.586h.006a5.588 5.588 0 0 1 5.586 5.586v7.763a2.095 2.095 0 0 1-2.094 2.094 2.096 2.096 0 0 0-2.094 2.094v17.933a5.588 5.588 0 0 0 5.586 5.586h36.358a5.587 5.587 0 0 0 5.586-5.586v-69.9a2.79 2.79 0 0 1 2.79-2.79h1.718a2.788 2.788 0 0 1 2.789 2.79v69.9a5.588 5.588 0 0 0 5.587 5.586h30.414a5.588 5.588 0 0 0 5.586-5.586v-69.9a2.789 2.789 0 0 1 2.79-2.79h1.717c1.55 0 2.79 1.252 2.79 2.79v69.9c0 3.084 2.5 5.586 5.59 5.586h36.35c3.09 0 5.59-2.502 5.59-5.586V74.721c0-3.084-2.5-5.586-5.59-5.586h-60.863ZM434.033 176.957a5.588 5.588 0 0 1-5.586 5.586h-14.371a5.589 5.589 0 0 1-5.586-5.586v-23.909a5.589 5.589 0 0 1 5.586-5.586h14.371a5.588 5.588 0 0 1 5.586 5.586v23.909Zm117.724 0a5.588 5.588 0 0 1-5.586 5.586H531.8a5.589 5.589 0 0 1-5.586-5.586v-23.909a5.588 5.588 0 0 0-5.586-5.586h-1.602a5.589 5.589 0 0 1-5.587-5.586v-23.998a5.588 5.588 0 0 1 5.587-5.586h27.139a5.588 5.588 0 0 1 5.586 5.586v59.079h.006Zm92.079 0a5.589 5.589 0 0 1-5.586 5.586h-14.371a5.588 5.588 0 0 1-5.586-5.586v-23.909a5.589 5.589 0 0 0-5.586-5.586h-1.603a5.589 5.589 0 0 1-5.586-5.586v-23.998a5.588 5.588 0 0 1 5.586-5.586h27.139a5.587 5.587 0 0 1 5.586 5.586v59.079h.007Z" fill="#00FF47"/><path d="M374.572 182.543h-39.907a5.589 5.589 0 0 1-5.587-5.586v-59.079a5.588 5.588 0 0 1 5.587-5.586h21.348a5.588 5.588 0 0 0 5.586-5.586V74.721a5.588 5.588 0 0 0-5.586-5.586h-21.348a5.589 5.589 0 0 1-5.587-5.586V24.586A5.588 5.588 0 0 0 323.492 19h-39.907a5.588 5.588 0 0 0-5.586 5.586v68.068c0 1.156.938 2.094 2.094 2.094 1.155 0 2.094.938 2.094 2.094v7.763a5.588 5.588 0 0 1-5.586 5.586 5.587 5.587 0 0 1-5.586-5.586v-7.763c0-1.156.938-2.094 2.094-2.094a2.096 2.096 0 0 0 2.094-2.094V74.721a5.589 5.589 0 0 0-5.587-5.586h-90.987a5.588 5.588 0 0 0-5.586 5.586v53.059c0 1.155.939 2.094 2.094 2.094 1.156 0 2.094.938 2.094 2.094v7.763a5.588 5.588 0 0 1-5.586 5.586 5.589 5.589 0 0 1-5.586-5.586v-7.763c0-1.156.939-2.094 2.094-2.094a2.095 2.095 0 0 0 2.094-2.094V74.72a5.588 5.588 0 0 0-5.586-5.585h-60.86a5.588 5.588 0 0 0-5.586 5.586v34.774a2.789 2.789 0 0 1-2.79 2.79h-1.596a2.788 2.788 0 0 1-2.79-2.79V74.721a5.588 5.588 0 0 0-5.586-5.586H24.586A5.588 5.588 0 0 0 19 74.72v145.386a5.588 5.588 0 0 0 5.586 5.586h36.358a5.588 5.588 0 0 0 5.586-5.586v-69.9a2.789 2.789 0 0 1 2.79-2.79h1.717a2.79 2.79 0 0 1 2.79 2.79v69.9a5.588 5.588 0 0 0 5.586 5.586h30.414a5.588 5.588 0 0 0 5.587-5.586v-69.9a2.788 2.788 0 0 1 2.789-2.79h1.718a2.79 2.79 0 0 1 2.79 2.79v69.9a5.587 5.587 0 0 0 5.586 5.586h36.358a5.588 5.588 0 0 0 5.586-5.586v-53.058a2.095 2.095 0 0 0-2.094-2.094 2.095 2.095 0 0 1-2.094-2.094v-7.764a5.588 5.588 0 0 1 5.586-5.586 5.589 5.589 0 0 1 5.586 5.586v7.764a2.096 2.096 0 0 1-2.094 2.094 2.095 2.095 0 0 0-2.094 2.094v53.058a5.588 5.588 0 0 0 5.586 5.586h90.993a5.588 5.588 0 0 0 5.587-5.586v-31.984a5.588 5.588 0 0 0-5.587-5.586h-39.907a5.589 5.589 0 0 1-5.586-5.587V165.72a5.588 5.588 0 0 1 5.586-5.586h14.371a5.589 5.589 0 0 0 5.586-5.587v-1.596a5.589 5.589 0 0 1 5.586-5.586h14.371a5.588 5.588 0 0 0 5.586-5.586v-9.857a2.095 2.095 0 0 0-2.094-2.094 2.095 2.095 0 0 1-2.094-2.094v-7.763a5.588 5.588 0 0 1 5.586-5.586 5.587 5.587 0 0 1 5.586 5.586v7.763a2.095 2.095 0 0 1-2.094 2.094 2.095 2.095 0 0 0-2.094 2.094v88.184a5.588 5.588 0 0 0 5.586 5.586h90.987a5.587 5.587 0 0 0 5.586-5.586v-31.984a5.587 5.587 0 0 0-5.586-5.586l-.006.006Zm-137.681-40.756a5.588 5.588 0 0 1-5.586 5.586h-14.371a5.589 5.589 0 0 1-5.586-5.586v-23.909a5.588 5.588 0 0 1 5.586-5.586h14.371a5.587 5.587 0 0 1 5.586 5.586v23.909Z" stroke="#000" stroke-width="38" mask="url(#a)"/><path d="M982.547 69.135a5.588 5.588 0 0 0-5.586 5.586v34.774a2.789 2.789 0 0 1-2.79 2.79h-1.596a2.789 2.789 0 0 1-2.79-2.79V74.721a5.588 5.588 0 0 0-5.586-5.586h-60.86a5.588 5.588 0 0 0-5.586 5.586v88.184c0 1.156.938 2.094 2.094 2.094 1.155 0 2.094.939 2.094 2.094v7.763a5.589 5.589 0 0 1-5.586 5.587h-.007a5.589 5.589 0 0 1-5.586-5.587v-7.763c0-1.155.939-2.094 2.094-2.094a2.095 2.095 0 0 0 2.094-2.094v-9.902a5.588 5.588 0 0 0-5.586-5.586h-1.596a5.588 5.588 0 0 1-5.586-5.586v-1.596a5.589 5.589 0 0 0-5.586-5.586h-39.914a5.589 5.589 0 0 1-5.586-5.586v-11.185a5.588 5.588 0 0 1 5.586-5.586h27.139a5.587 5.587 0 0 1 5.586 5.586v1.596a5.589 5.589 0 0 0 5.586 5.586h14.371a5.588 5.588 0 0 0 5.586-5.586V74.721a5.588 5.588 0 0 0-5.586-5.586h-90.993a5.588 5.588 0 0 0-5.586 5.586v17.933c0 1.156.938 2.094 2.094 2.094 1.155 0 2.094.938 2.094 2.094v7.763a5.588 5.588 0 0 1-5.587 5.586 5.588 5.588 0 0 1-5.586-5.586v-7.763c0-1.156.939-2.094 2.094-2.094a2.095 2.095 0 0 0 2.094-2.094V74.721a5.588 5.588 0 0 0-5.586-5.586h-39.907a5.588 5.588 0 0 0-5.586 5.586v53.059c0 1.155.938 2.094 2.094 2.094 1.155 0 2.094.938 2.094 2.094v7.763a5.589 5.589 0 0 1-5.586 5.586 5.589 5.589 0 0 1-5.587-5.586v-7.763c0-1.156.939-2.094 2.094-2.094a2.095 2.095 0 0 0 2.094-2.094V24.586A5.588 5.588 0 0 0 730.526 19h-39.907a5.588 5.588 0 0 0-5.586 5.586V127.78c0 1.155.938 2.094 2.094 2.094 1.155 0 2.094.938 2.094 2.094v7.763a5.589 5.589 0 0 1-5.586 5.586 5.588 5.588 0 0 1-5.586-5.586v-7.763c0-1.156.938-2.094 2.094-2.094a2.096 2.096 0 0 0 2.094-2.094V74.72a5.589 5.589 0 0 0-5.587-5.585h-90.993a5.588 5.588 0 0 0-5.586 5.586v53.059c0 1.155.938 2.094 2.094 2.094 1.155 0 2.094.938 2.094 2.094v7.763a5.589 5.589 0 0 1-5.586 5.586 5.588 5.588 0 0 1-5.586-5.586v-7.763c0-1.156.938-2.094 2.094-2.094a2.096 2.096 0 0 0 2.094-2.094V74.72a5.589 5.589 0 0 0-5.587-5.585h-42.703a2.789 2.789 0 0 1-2.79-2.79V24.586A5.588 5.588 0 0 0 520.609 19h-39.907a5.589 5.589 0 0 0-5.587 5.586V127.78c0 1.155.939 2.094 2.094 2.094 1.156 0 2.094.938 2.094 2.094v7.763a5.588 5.588 0 0 1-5.586 5.586 5.589 5.589 0 0 1-5.586-5.586v-7.763c0-1.156.939-2.094 2.094-2.094a2.095 2.095 0 0 0 2.094-2.094V74.72a5.588 5.588 0 0 0-5.586-5.585h-96.777a5.589 5.589 0 0 0-5.587 5.586v31.985a5.589 5.589 0 0 0 5.587 5.586h61.262a2.789 2.789 0 0 1 2.79 2.79v13.974a5.589 5.589 0 0 1-5.586 5.587H375.74a5.588 5.588 0 0 0-5.587 5.586v33.772a5.588 5.588 0 0 0 5.587 5.586h1.602a5.588 5.588 0 0 1 5.586 5.586v34.934a5.588 5.588 0 0 0 5.586 5.586h78.219a5.587 5.587 0 0 0 5.586-5.586v-53.058a2.095 2.095 0 0 0-2.094-2.094 2.096 2.096 0 0 1-2.094-2.094v-7.764a5.589 5.589 0 0 1 5.586-5.586 5.588 5.588 0 0 1 5.586 5.586v7.764a2.095 2.095 0 0 1-2.094 2.094 2.095 2.095 0 0 0-2.094 2.094v53.058a5.588 5.588 0 0 0 5.587 5.586h90.993a5.588 5.588 0 0 0 5.586-5.586v-53.058a2.095 2.095 0 0 0-2.094-2.094 2.095 2.095 0 0 1-2.094-2.094v-7.764a5.589 5.589 0 0 1 5.586-5.586 5.588 5.588 0 0 1 5.586 5.586v7.764a2.095 2.095 0 0 1-2.094 2.094 2.095 2.095 0 0 0-2.094 2.094v53.058a5.588 5.588 0 0 0 5.586 5.586h90.994a5.588 5.588 0 0 0 5.586-5.586v-53.058a2.095 2.095 0 0 0-2.094-2.094 2.095 2.095 0 0 1-2.094-2.094v-7.764a5.588 5.588 0 0 1 5.586-5.586 5.588 5.588 0 0 1 5.586 5.586v7.764a2.095 2.095 0 0 1-2.094 2.094 2.095 2.095 0 0 0-2.094 2.094v53.058a5.588 5.588 0 0 0 5.586 5.586h39.908a5.588 5.588 0 0 0 5.586-5.586v-53.058a2.095 2.095 0 0 0-2.094-2.094 2.095 2.095 0 0 1-2.094-2.094v-7.764a5.588 5.588 0 0 1 5.586-5.586 5.588 5.588 0 0 1 5.586 5.586v7.764a2.095 2.095 0 0 1-2.094 2.094 2.095 2.095 0 0 0-2.094 2.094v53.058a5.588 5.588 0 0 0 5.586 5.586h39.908a5.588 5.588 0 0 0 5.586-5.586v-88.184a2.095 2.095 0 0 0-2.094-2.094 2.095 2.095 0 0 1-2.094-2.094v-7.763a5.587 5.587 0 0 1 5.586-5.586 5.588 5.588 0 0 1 5.586 5.586v7.763a2.095 2.095 0 0 1-2.094 2.094 2.095 2.095 0 0 0-2.094 2.094v9.902a5.589 5.589 0 0 0 5.586 5.586h1.596a5.588 5.588 0 0 1 5.586 5.586v1.596a5.588 5.588 0 0 0 5.587 5.586h39.913a5.588 5.588 0 0 1 5.586 5.586v11.185a5.588 5.588 0 0 1-5.586 5.587H823.92a5.589 5.589 0 0 1-5.586-5.587v-1.596a5.589 5.589 0 0 0-5.586-5.586h-14.371a5.589 5.589 0 0 0-5.586 5.586v44.753a5.588 5.588 0 0 0 5.586 5.586h90.994a5.588 5.588 0 0 0 5.586-5.586v-17.933a2.096 2.096 0 0 0-2.094-2.094 2.095 2.095 0 0 1-2.094-2.094v-7.763a5.588 5.588 0 0 1 5.586-5.586h.006a5.588 5.588 0 0 1 5.586 5.586v7.763a2.095 2.095 0 0 1-2.094 2.094 2.096 2.096 0 0 0-2.094 2.094v17.933a5.588 5.588 0 0 0 5.586 5.586h36.358a5.587 5.587 0 0 0 5.586-5.586v-69.9a2.79 2.79 0 0 1 2.79-2.79h1.718a2.788 2.788 0 0 1 2.789 2.79v69.9a5.588 5.588 0 0 0 5.587 5.586h30.414a5.588 5.588 0 0 0 5.586-5.586v-69.9a2.789 2.789 0 0 1 2.79-2.79h1.717c1.55 0 2.79 1.252 2.79 2.79v69.9c0 3.084 2.5 5.586 5.59 5.586h36.35c3.09 0 5.59-2.502 5.59-5.586V74.721c0-3.084-2.5-5.586-5.59-5.586h-60.863ZM434.033 176.957a5.588 5.588 0 0 1-5.586 5.586h-14.371a5.589 5.589 0 0 1-5.586-5.586v-23.909a5.589 5.589 0 0 1 5.586-5.586h14.371a5.588 5.588 0 0 1 5.586 5.586v23.909Zm117.724 0a5.588 5.588 0 0 1-5.586 5.586H531.8a5.589 5.589 0 0 1-5.586-5.586v-23.909a5.588 5.588 0 0 0-5.586-5.586h-1.602a5.589 5.589 0 0 1-5.587-5.586v-23.998a5.588 5.588 0 0 1 5.587-5.586h27.139a5.588 5.588 0 0 1 5.586 5.586v59.079h.006Zm92.079 0a5.589 5.589 0 0 1-5.586 5.586h-14.371a5.588 5.588 0 0 1-5.586-5.586v-23.909a5.589 5.589 0 0 0-5.586-5.586h-1.603a5.589 5.589 0 0 1-5.586-5.586v-23.998a5.588 5.588 0 0 1 5.586-5.586h27.139a5.587 5.587 0 0 1 5.586 5.586v59.079h.007Z" stroke="#000" stroke-width="38" mask="url(#a)"/></svg>